<?xml version="1.0" standalone="no"?><!DOCTYPE svg PUBLIC "-//W3C//DTD SVG 1.1//EN" "http://www.w3.org/Graphics/SVG/1.1/DTD/svg11.dtd"><svg t="1615254253191" class="icon" viewBox="0 0 1024 1024" version="1.1" xmlns="http://www.w3.org/2000/svg" p-id="2482" xmlns:xlink="http://www.w3.org/1999/xlink" width="200" height="200"><defs><style type="text/css"></style></defs><path d="M894.293 317.577c-63.351-161.655-179.132-283.989-404.139-279.62-10.923 2.185-24.030 2.185-34.953 4.369-28.399 4.369-56.798 10.923-83.012 21.845-98.304 37.137-170.394 102.673-216.269 194.423-8.738 17.476-21.845 39.322-24.030 61.167-52.429 13.107-80.828 26.214-100.489 72.090-32.768 78.643 15.292 172.578 91.75 174.763 8.738 19.661 17.476 39.322 26.214 58.982 45.875 74.274 126.703 124.518 218.453 152.917 111.411 32.768 266.513 15.292 353.894-24.030 32.768-15.292 61.167-37.137 87.381-56.798 37.137-28.399 80.828-74.274 89.566-128.887 52.429-8.738 83.012-37.137 98.304-85.197 26.214-87.381-28.399-163.84-102.673-166.025zM922.692 514.185c-13.107 8.738-34.953 8.738-54.613 10.923-28.399 117.965-122.334 183.501-238.114 214.084-211.9 54.613-445.645-43.691-476.228-214.084-19.661-2.185-43.691-2.185-56.798-10.923-45.875-28.399-43.691-115.78 2.185-144.179 15.292-8.738 37.137-8.738 58.982-8.738 8.738-24.030 15.292-45.875 24.030-69.905 21.845-50.244 96.119-146.364 150.733-161.655 2.185 52.429 21.845 113.596 52.429 137.626 10.923-6.554 21.845-15.292 30.583-21.845v-2.185c-24.030-37.137-45.875-74.274-45.875-135.441 32.768-6.554 63.351-24.030 104.858-26.214 0 50.244 4.369 98.304 21.845 135.441 8.738 15.292 17.476 30.583 26.214 45.875 0 0 2.185 0 2.185 2.185 10.923-6.554 21.845-13.107 32.768-21.845-8.738-15.292-15.292-28.399-24.030-43.691-13.107-32.768-17.476-72.090-17.476-117.965 43.691-4.369 83.012 15.292 117.965 21.845-4.369 32.768-10.923 78.643 0 111.411 8.738 17.476 15.292 34.953 24.030 52.429 2.185 0 2.185 2.185 4.369 2.185 10.923-6.554 21.845-13.107 30.583-17.476 0-13.107-15.292-30.583-19.661-45.875-6.554-24.030-4.369-58.982-2.185-83.012 17.476 4.369 34.953 19.661 48.060 28.399 78.643 54.613 104.858 113.596 141.995 211.9 37.137 6.554 61.167 2.185 78.643 24.030 30.583 37.137 21.845 104.858-17.476 126.703zM352.529 350.345c-10.923 6.554-19.661 8.738-26.214 19.661-17.476 28.399 4.369 76.459 41.506 69.905 48.060-10.923 43.691-91.75-15.292-89.566zM651.81 350.345c-8.738 6.554-17.476 8.738-24.030 17.476-17.476 28.399 0 78.643 39.322 69.905 45.875-8.738 45.875-89.566-15.292-87.381zM544.768 512h-124.518c-2.185 2.185-4.369 4.369-6.554 6.554-8.738 19.661 10.923 39.322 17.476 48.060 41.506 52.429 126.703 45.875 163.84-6.554 8.738-10.923 17.476-28.399 13.107-48.060-17.476-2.185-43.691 0-63.351 0zM793.805 763.221c-2.185 15.292-4.369 28.399-6.554 43.691-13.107 37.137-52.429 83.012-109.227 67.721-17.476-8.738-34.953-17.476-52.429-26.214-21.845 26.214-28.399 58.982-58.982 78.643-76.459 45.875-148.548-17.476-168.209-76.459-19.661-2.185-43.691 21.845-67.721 26.214-61.167 10.923-102.673-58.982-100.489-113.596-13.107-8.738-26.214-17.476-37.137-26.214-26.214 113.596 78.643 222.822 185.685 168.209 24.030 28.399 39.322 54.613 78.643 69.905 76.459 30.583 166.025-13.107 185.685-69.905 13.107 4.369 26.214 10.923 43.691 13.107 24.030 4.369 43.691-4.369 58.982-8.738 63.351-26.214 96.119-87.381 87.381-174.763-15.292 10.923-26.214 19.661-39.322 28.399z" p-id="2483" fill="#ffffff"></path></svg>