<?xml version="1.0" standalone="no"?><!DOCTYPE svg PUBLIC "-//W3C//DTD SVG 1.1//EN" "http://www.w3.org/Graphics/SVG/1.1/DTD/svg11.dtd"><svg t="1615254329139" class="icon" viewBox="0 0 1024 1024" version="1.1" xmlns="http://www.w3.org/2000/svg" p-id="5051" xmlns:xlink="http://www.w3.org/1999/xlink" width="200" height="200"><defs><style type="text/css"></style></defs><path d="M992 230.4h-64c-12.8 0-19.2 6.4-19.2 12.8l-57.6 147.2h-185.6L780.8 32c0-6.4 0-12.8-6.4-19.2-6.4-6.4-12.8-6.4-19.2-6.4H633.6c-6.4 0-12.8 6.4-19.2 12.8L377.6 390.4H217.6C108.8 390.4 6.4 492.8 6.4 608c0 12.8 12.8 25.6 25.6 25.6h345.6l243.2 377.6c6.4 6.4 12.8 12.8 19.2 12.8h121.6c6.4 0 12.8-6.4 19.2-6.4 6.4-6.4 6.4-12.8 6.4-19.2L672 640h204.8c76.8 0 147.2-70.4 147.2-153.6V256c-6.4-12.8-19.2-25.6-32-25.6z" fill="#ffffff" p-id="5052"></path></svg>