<?xml version="1.0" standalone="no"?><!DOCTYPE svg PUBLIC "-//W3C//DTD SVG 1.1//EN" "http://www.w3.org/Graphics/SVG/1.1/DTD/svg11.dtd"><svg t="1615254335472" class="icon" viewBox="0 0 1024 1024" version="1.1" xmlns="http://www.w3.org/2000/svg" p-id="5220" xmlns:xlink="http://www.w3.org/1999/xlink" width="200" height="200"><defs><style type="text/css"></style></defs><path d="M310.423704 883.484444l106.382222-94.625185 10.24 79.265185-37.925926 32.047408-66.37037 10.619259-12.325926-27.306667zM590.506667 836.266667l130.465185-132.740741 7.016296 100.693333-87.608889 106.571852-49.872592-74.524444z" fill="#ffffff" p-id="5221"></path><path d="M380.776296 725.143704l-22.186666 18.962963-0.948149 145.445926s-22.945185 51.38963-1.706666 41.908148 72.248889-99.176296 71.111111-102.968889-46.26963-103.348148-46.26963-103.348148zM917.997037 138.24L624.82963 426.097778l30.909629 380.397037 72.248889-75.851852V462.885926l109.037037-130.275556L936.580741 208.592593l-18.583704-70.352593z" fill="#ffffff" p-id="5222"></path><path d="M357.072593 958.767407a67.887407 67.887407 0 0 1-56.888889-33.185185l-22.755556-36.408889-5.12-8.154074-48.924444-78.317037c-47.597037-29.013333-123.06963-75.851852-132.740741-84.195555A67.318519 67.318519 0 0 1 64.663704 663.703704a75.851852 75.851852 0 0 1 23.514074-51.768889l4.551111-5.12a113.777778 113.777778 0 0 1 72.059259-33.185185H270.032593l46.08-47.597037c-77.558519-28.823704-177.682963-66.37037-186.026667-69.594074A70.162963 70.162963 0 0 1 84.195556 398.222222a80.782222 80.782222 0 0 1 24.651851-64.663703c0.948148-0.948148 40.77037-37.925926 61.060741-55.182223a98.038519 98.038519 0 0 1 63.715556-23.893333h3.602963l163.081481 10.42963 164.977778 10.619259L720.592593 121.552593a181.285926 181.285926 0 0 1 128.379259-56.888889A117.76 117.76 0 0 1 930.702222 94.814815a113.777778 113.777778 0 0 1 28.823704 80.213333 181.096296 181.096296 0 0 1-56.888889 128.758519l-155.306667 155.496296c2.465185 42.287407 6.068148 103.158519 9.481482 160.616296l4.740741 80.213334c4.361481 73.576296 4.93037 81.351111 4.93037 84.195555A96.142222 96.142222 0 0 1 742.58963 853.333333c-13.653333 16.877037-41.908148 47.217778-53.475556 59.543704a82.488889 82.488889 0 0 1-65.422222 26.168889 69.973333 69.973333 0 0 1-58.785185-45.700741c-3.223704-8.533333-39.632593-106.761481-68.077037-184.13037l-48.165926 45.511111V856.367407c0 16.687407-2.465185 39.253333-32.805926 74.524445l-2.085926 2.275555a80.402963 80.402963 0 0 1-56.699259 25.6zM137.291852 658.773333l-1.706667 1.517037a9.291852 9.291852 0 0 0-2.844444 5.30963c7.205926 5.12 74.524444 48.165926 132.74074 82.868148l3.602963 2.085926 7.964445 9.291852c8.722963 14.411852 33.185185 53.285926 52.906667 84.954074l5.12 7.964444 23.324444 37.925926a20.66963 20.66963 0 0 0 7.395556-4.93037c6.257778-7.585185 15.54963-18.962963 15.36-26.737778v-3.034074V790.755556v-65.611852l144.118518-138.808889 18.014815 49.303704c27.496296 75.851852 81.73037 221.866667 85.712592 232.106666a7.205926 7.205926 0 0 0 1.517038 2.465185 13.084444 13.084444 0 0 0 9.671111-5.12c8.343704-8.912593 37.925926-40.011852 50.251851-56.888889a30.151111 30.151111 0 0 0 8.343704-23.514074c0-4.93037-1.896296-32.995556-4.740741-81.73037l-4.74074-80.213333c-3.982222-64.853333-8.154074-134.068148-10.42963-175.976297v-15.17037l176.924445-177.114074A113.777778 113.777778 0 0 0 891.259259 175.028148a51.2 51.2 0 0 0-8.722963-32.616296A54.234074 54.234074 0 0 0 848.782222 132.740741a113.777778 113.777778 0 0 0-80.023703 37.925926l-176.924445 176.924444-15.36-0.948148-180.337778-11.757037-159.288889-10.24h-1.706666a28.444444 28.444444 0 0 0-21.428148 8.154074c-16.877037 14.032593-52.717037 47.407407-56.888889 51.38963a13.463704 13.463704 0 0 0-5.12 8.343703 6.637037 6.637037 0 0 0 2.844444 1.517037c8.912593 3.413333 154.737778 58.026667 233.813333 87.22963l49.114075 18.962963-139.188149 143.54963H164.788148a65.991111 65.991111 0 0 0-27.496296 14.98074z" fill="#ffffff" p-id="5223"></path></svg>