<?xml version="1.0" standalone="no"?><!DOCTYPE svg PUBLIC "-//W3C//DTD SVG 1.1//EN" "http://www.w3.org/Graphics/SVG/1.1/DTD/svg11.dtd"><svg t="1615254445129" class="icon" viewBox="0 0 1353 1024" version="1.1" xmlns="http://www.w3.org/2000/svg" p-id="8956" xmlns:xlink="http://www.w3.org/1999/xlink" width="264.2578125" height="200"><defs><style type="text/css"></style></defs><path d="M627.87206 243.842526c-57.196798-99.063853-63.412982-202.552786-13.881056-231.1446s136.058052 28.525965 193.25485 127.589818M1115.368415 222.849734c99.063853-57.196798 202.552786-63.412982 231.1446-13.881055S1317.98705 345.06624 1218.923197 402.210358" fill="#ffffff" p-id="8957"></path><path d="M614.5178 12.421359c-0.171208 0.092189-0.355587 0.171208-0.526796 0.276567-44.922468 25.931498-43.987406 113.511214-0.724343 203.501018l131.488102-75.9112c-37.112728-64.269024-86.552465-110.850897-130.236963-127.866385zM1235.583098 178.309193c-37.033708 5.794748-79.019292 20.742564-120.214683 44.540541l86.131028 149.188424c70.37985-54.365273 106.438987-121.650201 82.522481-163.069479-9.153068-15.988237-26.273915-26.129046-48.438826-30.659486z" fill="#ffffff" p-id="8958"></path><path d="M604.864276 249.110479a5.267953 5.267953 0 0 1-4.569949-2.633976c-28.065019-48.610035-44.988317-99.854046-47.648633-144.315568-2.752505-45.75217 9.930091-79.150991 35.70355-94.032958s61.042403-9.218917 99.287741 16.093596c37.165407 24.53549 73.092845 64.82216 101.157864 113.432194a5.267953 5.267953 0 0 1-9.126728 5.267953c-55.655922-96.390367-139.113464-152.770632-186.050924-125.667015s-39.852063 127.563478 15.803858 223.887995a5.267953 5.267953 0 0 1-1.935972 7.190756 5.096744 5.096744 0 0 1-2.620807 0.777023zM1195.915413 407.478311a5.267953 5.267953 0 0 1-2.633976-9.824732c47.214027-27.261656 86.249558-62.003805 109.902666-97.839054 22.941935-34.742149 28.539134-66.073298 15.803858-88.23821-27.090447-46.93746-127.563478-39.852063-223.953844 15.803859a5.267953 5.267953 0 0 1-5.267953-9.126729c48.610035-28.065019 99.867216-44.988317 144.328737-47.648633 45.75217-2.739335 79.137821 9.930091 94.019788 35.70355s9.218917 61.029233-16.080426 99.287741c-24.54866 37.165407-64.835329 73.092845-113.432194 101.157864a5.267953 5.267953 0 0 1-2.686656 0.724344z" fill="#ffffff" p-id="8959"></path><path d="M672.425771 153.352267c-178.833829 103.251875-240.10012 331.881028-136.848244 510.767536s331.881028 240.11329 510.754366 136.861414 240.11329-331.881028 136.861414-510.767536S851.27277 50.060882 672.425771 153.352267z m320.48908 555.110529c-127.747856 73.75134-291.054394 29.974652-364.805733-97.760035s-29.974652-291.054394 97.760035-364.805733 291.054394-29.987821 364.805733 97.760034 29.987821 291.054394-97.760035 364.805734z" fill="#ffffff" p-id="8960"></path><path d="M695.394045 153.352267c-178.833829 103.251875-240.11329 331.881028-136.861414 510.767536S890.519018 904.233093 1069.418696 800.981217s240.10012-331.881028 136.848245-510.767536S874.280554 50.060882 695.394045 153.352267z m320.48908 555.110529c-127.747856 73.75134-291.054394 29.974652-364.805733-97.760035s-29.987821-291.054394 97.760035-364.805733 291.054394-29.987821 364.805733 97.760034 30.027331 291.054394-97.707355 364.805734z" fill="#ffffff" p-id="8961"></path><path d="M1010.272756 800.981217c178.833829-103.251875 240.10012-331.881028 136.848244-510.767536-63.979287-110.824558-176.120833-176.47642-294.72879-185.800696A372.286226 372.286226 0 0 0 695.394045 153.352267c-178.833829 103.251875-240.11329 331.881028-136.861414 510.767536 63.979287 110.811388 176.134003 176.47642 294.728791 185.787526a372.575964 372.575964 0 0 0 157.011334-48.926112zM592.023641 610.702761c-73.75134-127.747856-29.987821-291.054394 97.746865-364.805733a265.873579 265.873579 0 0 1 162.950951-34.136334 267.111548 267.111548 0 0 1 260.974383 131.870029c73.75134 127.747856 29.974652 291.054394-97.760035 364.805733a265.873579 265.873579 0 0 1-162.950951 34.136334A267.098378 267.098378 0 0 1 592.023641 610.702761z" fill="#ffffff" p-id="8962"></path><path d="M860.017571 856.50544a381.162727 381.162727 0 0 1-98.774115-13.090863A379.174075 379.174075 0 0 1 669.791795 148.834997a376.526928 376.526928 0 0 1 142.722012-48.03056 5.267953 5.267953 0 0 1 1.316988 10.456887 368.690848 368.690848 0 0 0-49.848004 721.972934 366.122721 366.122721 0 0 0 279.728295-36.875669l4.767498-2.792015a5.267953 5.267953 0 0 1 5.386481 9.047709c-1.619895 0.974571-3.239791 1.922803-4.886026 2.871034A376.987874 376.987874 0 0 1 860.017571 856.50544z m230.973392-80.46798a5.267953 5.267953 0 0 1-3.266131-9.403295 365.451057 365.451057 0 0 0 80.178242-87.540206 5.267953 5.267953 0 0 1 8.823821 5.768408 376.184511 376.184511 0 0 1-82.482971 90.055654 5.267953 5.267953 0 0 1-3.266131 1.119439z m-231.15777-26.576822a272.313651 272.313651 0 1 1 214.43202-439.676512 5.267953 5.267953 0 0 1-8.323366 6.466412c-79.704126-102.580211-224.783547-130.869118-337.465058-65.84941a261.804086 261.804086 0 1 0 392.712713 221.517416 5.267953 5.267953 0 1 1 10.535906-0.197548 272.313651 272.313651 0 0 1-271.892215 277.739642z m336.345618-104.555693a5.267953 5.267953 0 0 1-4.741158-7.546343A368.756698 368.756698 0 0 0 859.372247 108.469309a5.267953 5.267953 0 0 1 0-10.535906A379.292603 379.292603 0 0 1 1200.933138 641.915382a5.267953 5.267953 0 0 1-4.754327 2.989563zM1122.62502 436.978847a5.267953 5.267953 0 0 1-5.175764-4.372401 261.237781 261.237781 0 0 0-31.331149-86.341747 5.267953 5.267953 0 1 1 9.126728-5.267953 271.431269 271.431269 0 0 1 32.582288 89.818596 5.267953 5.267953 0 0 1-5.267953 6.163505z" fill="#ffffff" p-id="8963"></path><path d="M204.341823 554.467365a125.548486 125.548486 0 1 1 91.715058-211.271248M679.181921 347.2261a125.548486 125.548486 0 1 1 131.303724 204.251701M803.387078 676.604851a156.932315 156.932315 0 1 1-97.351768 280.031202M285.06003 954.621061a156.932315 156.932315 0 1 1-99.827706-278.01621c4.530439 0 9.021369 0.197548 13.459619 0.566305" fill="#ffffff" p-id="8964"></path><path d="M155.007445 544.379235L242.350102 343.248796a125.350937 125.350937 0 0 0-64.822159-36.87567 125.508976 125.508976 0 0 0-22.507329 238.045619zM744.846953 309.375859a125.324598 125.324598 0 0 0-65.665032 37.850241l117.409498 182.626755a125.469466 125.469466 0 0 0-51.744466-220.476996zM800.489704 685.059915l-94.414884 271.576138a156.431859 156.431859 0 0 0 70.35351 31.515528 156.919145 156.919145 0 0 0 24.061374-303.091666zM231.326911 954.621061l-85.024758-273.143354a156.932315 156.932315 0 0 0 12.103121 306.647534 156.128952 156.128952 0 0 0 72.921637-33.50418z" fill="#ffffff" p-id="8965"></path><path d="M181.320869 559.735317a130.816439 130.816439 0 1 1 95.573834-220.134578 5.267953 5.267953 0 0 1-7.704381 7.190755A120.320043 120.320043 0 1 0 181.320869 549.199412a5.267953 5.267953 0 1 1 0 10.535905zM787.477861 556.745754a5.267953 5.267953 0 0 1-1.633066-10.285678 120.280533 120.280533 0 1 0-125.785543-195.678107 5.267953 5.267953 0 0 1-7.770231-7.124907 130.816439 130.816439 0 1 1 136.808735 212.825295 5.412822 5.412822 0 0 1-1.619895 0.263397zM780.405634 995.724263a160.475013 160.475013 0 0 1-100.604729-34.966037 5.267953 5.267953 0 1 1 6.584941-8.257516 150.136656 150.136656 0 0 0 94.072468 32.687648 151.664362 151.664362 0 1 0 0-303.315554 5.267953 5.267953 0 0 1 0-10.535906 162.200268 162.200268 0 1 1 0 324.387365zM89.869208 978.102961a5.267953 5.267953 0 0 1-2.423258-0.605815 162.213437 162.213437 0 0 1 74.77859-306.160248c4.622629 0 9.297937 0.197548 13.894226 0.592645a5.267953 5.267953 0 1 1-0.895552 10.535905c-4.306551-0.368757-8.678952-0.553135-12.998674-0.553135a151.690702 151.690702 0 0 0-69.918904 286.247387 5.267953 5.267953 0 0 1-2.436428 9.943261zM162.22454 995.724263a162.740233 162.740233 0 0 1-40.826634-5.188933 5.267953 5.267953 0 0 1 2.633976-10.193489 152.098968 152.098968 0 0 0 134.701554-29.777103 5.267953 5.267953 0 1 1 6.70347 8.125817 162.424155 162.424155 0 0 1-103.212366 37.033708z" fill="#ffffff" p-id="8966"></path><path d="M97.349701 644.760076c0 206.54326 167.428711 374.024651 374.024651 374.024651s374.024651-167.428711 374.02465-374.024651-167.428711-373.958801-374.02465-373.958801-374.024651 167.428711-374.024651 373.958801z m641.083519 0c0 147.502679-119.595699 267.124718-267.124718 267.124718S204.157444 792.289095 204.157444 644.760076s119.595699-267.111548 267.111548-267.111548 267.164228 119.582529 267.164228 267.111548z" fill="#ffffff" p-id="8967"></path><path d="M120.357485 644.760076c0 206.54326 167.428711 374.024651 374.024651 374.024651s374.024651-167.428711 374.02465-374.024651-167.54724-373.958801-374.07733-373.958801S120.357485 438.229986 120.357485 644.760076z m641.083519 0c0 147.502679-119.582529 267.124718-267.111548 267.124718S227.204738 792.289095 227.204738 644.760076s119.595699-267.111548 267.124718-267.111548 267.111548 119.582529 267.111548 267.111548z" fill="#ffffff" p-id="8968"></path><path d="M467.462897 271.854865C273.483704 285.643732 120.357485 447.264525 120.357485 644.760076s153.126219 359.116344 347.105412 372.905211c193.992363-13.788867 347.105412-175.409659 347.105411-372.905211S661.455259 285.643732 467.462897 271.854865z m26.866559 640.056269q-13.604488 0-26.866559-1.316988-13.248901 1.316988-26.85339 1.316988c-147.502679 0-267.124718-119.595699-267.124718-267.124718s119.595699-267.111548 267.124718-267.111548q13.591318 0 26.85339 1.316988 13.248901-1.316988 26.866559-1.316988c147.502679 0 267.111548 119.582529 267.111548 267.111548s-119.582529 267.098378-267.111548 267.098378z" fill="#ffffff" p-id="8969"></path><path d="M471.308502 1024c-209.111387 0-379.292603-170.128537-379.292603-379.292603A379.885248 379.885248 0 0 1 286.469207 313.550712a5.267953 5.267953 0 0 1 5.136254 9.218917A369.362512 369.362512 0 0 0 102.617654 644.760076c0 203.303469 165.400549 368.756698 368.756698 368.756698s368.756698-165.400549 368.756697-368.756698c0-198.865219-155.536307-360.68356-354.098619-368.414281a5.267953 5.267953 0 0 1 0.408267-10.535905 379.226754 379.226754 0 0 1 364.107729 378.950186c0 209.111387-170.128537 379.239924-379.239924 379.239924zM455.241246 916.639121h-0.329247a269.13971 269.13971 0 0 1-113.787781-32.542778 5.267953 5.267953 0 1 1 5.044065-9.218918 258.919881 258.919881 0 0 0 109.310021 31.29164 5.267953 5.267953 0 0 1-0.302907 10.535906z m52.52149-1.988652a5.267953 5.267953 0 0 1-0.711174-10.535905c128.906806-17.581793 226.113705-129.064844 226.113705-259.446677 0-144.381417-117.462178-261.843595-261.856765-261.843595S209.425397 500.378659 209.425397 644.760076a260.579287 260.579287 0 0 0 99.485289 205.45016 5.267953 5.267953 0 0 1-6.584941 8.270686A271.088852 271.088852 0 0 1 198.889492 644.760076c0-150.136656 122.190166-272.379501 272.3795-272.379501s272.392671 122.190166 272.392671 272.379501c0 135.557596-101.118354 251.544747-235.214093 269.877223a6.953698 6.953698 0 0 1-0.684834 0.05268zM329.666421 303.818169a5.267953 5.267953 0 0 1-2.001823-10.140809 377.554179 377.554179 0 0 1 112.510303-26.892899 5.267953 5.267953 0 0 1 0.856042 10.535905 366.451968 366.451968 0 0 0-109.37587 26.129047 5.057235 5.057235 0 0 1-1.988652 0.368756z" fill="#ffffff" p-id="8970"></path><path d="M493.631452 968.686495a15.803858 15.803858 0 1 1 0-31.607717 292.779648 292.779648 0 0 0 172.788853-55.8403 15.803858 15.803858 0 1 1 18.437835 25.615421 324.308346 324.308346 0 0 1-191.226688 61.832596z" fill="#ffffff" p-id="8971"></path><path d="M716.821444 854.714336m-15.803859 0a15.803858 15.803858 0 1 0 31.607717 0 15.803858 15.803858 0 1 0-31.607717 0Z" fill="#ffffff" p-id="8972"></path><path d="M1261.145839 257.512864m-15.803858 0a15.803858 15.803858 0 1 0 31.607717 0 15.803858 15.803858 0 1 0-31.607717 0Z" fill="#ffffff" p-id="8973"></path><path d="M678.457577 98.512878m-15.803858 0a15.803858 15.803858 0 1 0 31.607717 0 15.803858 15.803858 0 1 0-31.607717 0Z" fill="#ffffff" p-id="8974"></path><path d="M1139.29809 653.702426a15.803858 15.803858 0 0 1-13.670337-23.705788 292.845498 292.845498 0 0 0 38.021449-177.51684 15.803858 15.803858 0 0 1 31.436509-3.239791 324.189817 324.189817 0 0 1-42.143623 196.56049 15.803858 15.803858 0 0 1-13.643998 7.901929z" fill="#ffffff" p-id="8975"></path><path d="M823.049712 418.014217m-15.803858 0a15.803858 15.803858 0 1 0 31.607717 0 15.803858 15.803858 0 1 0-31.607717 0Z" fill="#ffffff" p-id="8976"></path></svg>