<?xml version="1.0" standalone="no"?><!DOCTYPE svg PUBLIC "-//W3C//DTD SVG 1.1//EN" "http://www.w3.org/Graphics/SVG/1.1/DTD/svg11.dtd"><svg t="1615254436841" class="icon" viewBox="0 0 1068 1024" version="1.1" xmlns="http://www.w3.org/2000/svg" p-id="8781" xmlns:xlink="http://www.w3.org/1999/xlink" width="208.59375" height="200"><defs><style type="text/css"></style></defs><path d="M108.903223 498.041047c5.163896 0 10.346754-0.853275 15.339995-2.591429 6.004531-2.104746 12.837054-4.443353 20.383801-6.952615v23.904352h31.210918v-33.966681c85.946954-26.754924 227.13559-63.281432 364.095771-65.923425v53.768991a48.77575 48.77575 0 0 0-32.942751 46.121115 48.78207 48.78207 0 0 0 32.942751 46.121116v69.583028h31.210918v-69.589349a48.78207 48.78207 0 0 0 32.942751-46.114795 48.78207 48.78207 0 0 0-32.942751-46.127435v-53.787953c150.663153 2.218516 283.262149 36.172556 368.520162 64.532902v35.376166h31.210918v-24.530088c5.42936 1.965694 10.574294 3.880823 15.403201 5.713785a45.969422 45.969422 0 0 0 42.537359-5.201819 46.576195 46.576195 0 0 0 19.991926-38.302585 46.253847 46.253847 0 0 0-28.720618-42.979797c-51.480949-21.116986-233.215967-88.879693-448.942948-92.052614v-120.153817a48.78207 48.78207 0 0 0 32.942751-46.127436 48.78207 48.78207 0 0 0-32.942751-46.121115V0h-31.217238v102.639549a48.78207 48.78207 0 0 0-32.936431 46.121115 48.78207 48.78207 0 0 0 32.936431 46.121116V315.07984c-189.995988 3.596398-389.251594 71.156847-447.002537 92.261192-18.33594 6.699792-30.654709 24.365753-30.654709 43.953164a46.898544 46.898544 0 0 0 19.593731 38.112968 46.582516 46.582516 0 0 0 27.03935 8.640203z" fill="#ffffff" opacity=".3" p-id="8782"></path><path d="M572.870138 512.395035a17.381536 17.381536 0 0 1-17.330971 17.394177 17.381536 17.381536 0 0 1-17.337292-17.394177 17.381536 17.381536 0 0 1 17.337292-17.394177 17.381536 17.381536 0 0 1 17.330971 17.394177zM538.201875 148.760664a17.381536 17.381536 0 0 1 17.337292-17.394177 17.381536 17.381536 0 0 1 17.330971 17.394177 17.381536 17.381536 0 0 1-17.330971 17.394177 17.381536 17.381536 0 0 1-17.337292-17.394177zM103.606595 436.763232c58.117535-21.237076 262.473832-90.523039 451.932572-90.523038 216.8394 0 401.355464 68.767676 452.741604 89.846738a15.042929 15.042929 0 0 1 9.310183 13.987396c0 5.08805-2.37653 9.651493-6.516496 12.527347a14.676337 14.676337 0 0 1-13.747215 1.674948c-81.93972-31.090827-248.290499-83.241755-441.788076-83.241755-179.358488 0-368.551765 59.318441-441.560536 84.821895a15.238866 15.238866 0 0 1-14.03164-1.990976 15.270469 15.270469 0 0 1-6.459611-12.577911c0-6.472252 4.064119-12.312448 10.119215-14.524644zM598.449439 929.72887a132.965589 132.965589 0 0 1-32.152681-86.749665c0-31.874576 11.421249-62.687299 32.152681-86.755986a132.75701 132.75701 0 0 1 79.670639-44.528334l46.949109-7.439297-42.202369-21.944979c-25.895328-13.46279-53.743709-20.288993-82.761393-20.288993-9.860071 0-19.530526 0.809031-28.954478 2.344927v-19.739104h-31.217239v27.766213c-69.924338 24.915642-120.147496 91.964126-120.147496 170.579233 0 99.776336 80.890507 180.957589 180.325533 180.957589 29.011363 0 56.847103-6.826203 82.761393-20.288993l42.20869-21.944979-46.955429-7.445618a132.700125 132.700125 0 0 1-79.67696-44.522014z" fill="#ffffff" opacity=".3" p-id="8783"></path><path d="M600.099104 992.605786c-82.211504 0-149.101975-67.124331-149.101974-149.626581 0-82.50225 66.89047-149.632901 149.101974-149.632901 8.924629 0 17.716525 0.783749 26.337768 2.338606a164.473573 164.473573 0 0 0-51.60736 40.053379 164.372444 164.372444 0 0 0-39.756313 107.240916 164.372444 164.372444 0 0 0 39.756313 107.240916 164.423008 164.423008 0 0 0 51.60736 40.047058c-8.621242 1.554857-17.413139 2.338607-26.337768 2.338607zM194.072748 645.942115l-19.429397-38.037121 1.194586-78.735197-31.210918-0.480362-1.200906 79.240841-18.481313 39.061052-77.110813 12.4515 56.745974 53.851158-12.034344 77.445803 68.57806-37.518835 69.677836 35.414089-14.37295-77.047608 55.102629-55.557709-77.458444-10.087611z" fill="#ffffff" opacity=".3" p-id="8784"></path><path d="M188.491695 732.00916l-27.898945-14.177013-27.456506 15.023968 4.816265-31.00866-22.716087-21.559425 30.869608-4.993241 13.412225-28.341385 14.2655 27.924228 31.00866 4.045157-22.058749 22.242045 5.751708 30.844326z" fill="#ffffff" opacity=".3" p-id="8785"></path><path d="M1066.568961 656.036047l-77.458444-10.093932-19.423076-38.037121 1.188265-78.735197-31.210918-0.480362-1.200906 79.240841-18.481313 39.061052-77.110813 12.4515 56.745974 53.851158-12.034344 77.445803 68.57806-37.518835 69.677837 35.414089-14.37295-77.047608 55.108949-55.557709z" fill="#ffffff" opacity=".3" p-id="8786"></path><path d="M983.523143 732.00916l-27.898945-14.177013-27.450185 15.023968 4.816265-31.00866-22.722407-21.559425 30.875928-4.993241 13.412225-28.341385 14.25918 27.924228 31.01498 4.045157-22.058749 22.242045 5.751708 30.844326z" fill="#ffffff" opacity=".3" p-id="8787"></path><path d="M34.029887 489.400843a46.582516 46.582516 0 0 0 42.379344 6.042454c6.017172-2.098425 12.843375-4.437032 20.390122-6.952614v23.910672h31.210918v-33.966681c85.946954-26.754924 227.129269-63.281432 364.095771-65.923425v53.768991a48.77575 48.77575 0 0 0-32.942751 46.121115 48.78207 48.78207 0 0 0 32.942751 46.121116v69.583028h31.210918v-69.589349a48.78207 48.78207 0 0 0 32.942751-46.114795 48.78207 48.78207 0 0 0-32.942751-46.127435v-53.787953c150.663153 2.218516 283.262149 36.172556 368.520162 64.532902v35.376166h31.210918v-24.530088c5.42936 1.965694 10.574294 3.880823 15.403201 5.713785a45.969422 45.969422 0 0 0 42.537359-5.201819 46.576195 46.576195 0 0 0 19.985605-38.302585 46.253847 46.253847 0 0 0-28.720617-42.979797c-51.474628-21.116986-233.209646-88.879693-448.936628-92.052614v-120.153817a48.78207 48.78207 0 0 0 32.942751-46.127436 48.78207 48.78207 0 0 0-32.942751-46.121115V0h-31.217238v102.639549a48.78207 48.78207 0 0 0-32.942751 46.121115 48.78207 48.78207 0 0 0 32.942751 46.121116V315.07984c-189.995988 3.596398-389.251594 71.156847-447.002537 92.261192-18.33594 6.699792-30.654709 24.365753-30.654709 43.953164a46.898544 46.898544 0 0 0 19.593731 38.112968z m491.012585 22.994192a17.381536 17.381536 0 0 1-17.330971 17.394177 17.381536 17.381536 0 0 1-17.337292-17.394177 17.381536 17.381536 0 0 1 17.337292-17.394177 17.381536 17.381536 0 0 1 17.330971 17.394177z m-34.668263-363.634371a17.381536 17.381536 0 0 1 17.337292-17.394177 17.381536 17.381536 0 0 1 17.330971 17.394177 17.381536 17.381536 0 0 1-17.330971 17.394177 17.381536 17.381536 0 0 1-17.337292-17.394177zM55.778929 436.763232c58.117535-21.237076 262.473832-90.523039 451.932572-90.523038 216.833079 0 401.349143 68.767676 452.735283 89.846738a15.042929 15.042929 0 0 1 9.316504 13.987396c0 5.08805-2.37653 9.651493-6.516496 12.527347a14.676337 14.676337 0 0 1-13.753535 1.674948c-81.9334-31.090827-248.284178-83.241755-441.781756-83.241755-179.358488 0-368.551765 59.318441-441.566857 84.821895a15.238866 15.238866 0 0 1-14.031639-1.990976 15.270469 15.270469 0 0 1-6.459611-12.577911c0-6.472252 4.07044-12.312448 10.125535-14.524644z m494.836523 492.965638a132.965589 132.965589 0 0 1-32.14636-86.749665c0-31.874576 11.414929-62.687299 32.14636-86.755986a132.75701 132.75701 0 0 1 79.67696-44.528334l46.949109-7.439297-42.202369-21.944979c-25.901649-13.46279-53.743709-20.288993-82.761393-20.288993-9.860071 0-19.530526 0.809031-28.954478 2.344927v-19.739104h-31.217239v27.766213c-69.930659 24.915642-120.147496 91.964126-120.147496 170.579233 0 99.776336 80.890507 180.957589 180.319213 180.957589 29.011363 0 56.853424-6.826203 82.761393-20.288993l42.21501-21.944979-46.955429-7.445618a132.700125 132.700125 0 0 1-79.683281-44.522014z m1.655986 62.876916c-82.217825 0-149.101975-67.124331-149.101974-149.626581 0-82.50225 66.89047-149.632901 149.101974-149.632901 8.924629 0 17.710205 0.783749 26.337768 2.338606a164.473573 164.473573 0 0 0-51.613681 40.053379 164.372444 164.372444 0 0 0-39.743672 107.240916 164.372444 164.372444 0 0 0 39.743672 107.240916 164.423008 164.423008 0 0 0 51.613681 40.047058c-8.621242 1.554857-17.413139 2.338607-26.337768 2.338607z m-406.026356-346.663671l-19.429397-38.037121 1.194586-78.735197-31.210918-0.480362-1.200906 79.240841-18.481313 39.061052L0 659.442828l56.752295 53.851158-12.034344 77.445803 68.57806-37.518835 69.677836 35.414089-14.37295-77.047608 55.102629-55.557709-77.458444-10.087611z m-5.587374 86.067045l-27.892624-14.177013-27.456506 15.023968 4.816265-31.00866-22.722407-21.559425 30.875928-4.993241 13.412225-28.341385 14.25918 27.924228 31.01498 4.045157-22.058749 22.242045 5.751708 30.844326z m878.083587-75.973113l-77.458444-10.093932-19.429397-38.037121 1.194586-78.735197-31.210918-0.480362-1.200906 79.240841-18.481313 39.061052-77.110813 12.4515 56.745974 53.851158-12.034344 77.445803 68.57806-37.518835 69.677836 35.414089-14.372949-77.047608 55.102628-55.557709z m-83.052138 75.973113l-27.892625-14.177013-27.450185 15.023968 4.816265-31.00866-22.722407-21.559425 30.869607-4.993241 13.412225-28.341385 14.265501 27.924228 31.00866 4.045157-22.058749 22.242045 5.751708 30.844326z" fill="#ffffff" p-id="8788"></path></svg>