<?xml version="1.0" standalone="no"?><!DOCTYPE svg PUBLIC "-//W3C//DTD SVG 1.1//EN" "http://www.w3.org/Graphics/SVG/1.1/DTD/svg11.dtd"><svg t="1615254420436" class="icon" viewBox="0 0 1024 1024" version="1.1" xmlns="http://www.w3.org/2000/svg" p-id="8408" xmlns:xlink="http://www.w3.org/1999/xlink" width="200" height="200"><defs><style type="text/css"></style></defs><path d="M466 978v-91.9c0-25.4 20.6-46 46-46s46 20.6 46 46V978c0 25.4-20.6 46-46 46s-46-20.6-46-46zM771.6 110.5l65-65c17.9-17.9 47-17.9 65 0 17.9 17.9 17.9 47 0 65l-65 65c-17.9 17.9-47 17.9-65 0s-18-47 0-65zM196 172.7l-65-65c-17.9-17.9-17.9-47 0-65 17.9-17.9 47-17.9 65 0l65 65c17.9 17.9 17.9 47 0 65-17.9 17.9-47 17.9-65 0z" fill="#ffffff" p-id="8409"></path><path d="M283 883c-18.4 0-36.7-5.8-52.3-17.1-27.7-20.1-41.3-53.5-35.5-87.3l36-210L79.4 422.2c-24.5-23.9-33.1-58.9-22.6-91.5s38.2-55.8 72-60.7l210.9-30.7L432 49.8C447.1 19.1 477.8 0 512 0s64.9 19.1 80 49.8l94.3 191.1L895.2 270c33.9 4.9 61.5 28.2 72 60.7 10.6 32.5 1.9 67.6-22.6 91.5L792 570.9l36.8 207.6c5.8 33.7-7.8 67.2-35.5 87.3-27.6 20.1-63.6 22.7-94 6.8l-188.6-99.1-186.1 99.1c-13.1 6.9-27.4 10.4-41.6 10.4z m229-201.1c14.3 0 28.5 3.4 41.5 10.2l183.8 96.6-35.1-204.6c-4.9-29 4.6-58.5 25.7-79l148.7-144.9-205.5-29.9c-29-4.2-54.2-22.5-67.2-48.8L511.2 93.6l-91 187.9c-13 26.3-38.2 44.6-67.2 48.8l-205.5 29.9 148.7 144.9c21.1 20.6 30.7 50.1 25.7 79l-35.1 204.6 183.8-96.6c12.9-6.8 27.1-10.2 41.4-10.2z m38.8-611.8l-41.2 20.3 41.2-20.3z" fill="#ffffff" p-id="8410"></path></svg>