<?xml version="1.0" standalone="no"?><!DOCTYPE svg PUBLIC "-//W3C//DTD SVG 1.1//EN" "http://www.w3.org/Graphics/SVG/1.1/DTD/svg11.dtd"><svg t="1615254037754" class="icon" viewBox="0 0 1024 1024" version="1.1" xmlns="http://www.w3.org/2000/svg" p-id="1167" xmlns:xlink="http://www.w3.org/1999/xlink" width="200" height="200"><defs><style type="text/css"></style></defs><path d="M512 512a192 192 0 1 0-135.68-55.68A192 192 0 0 0 512 512z m0 64a256 256 0 1 1 181.12-74.88A256 256 0 0 1 512 576z m0-64a30.72 30.72 0 0 1 32 32v256a32 32 0 1 1-64 0v-256A30.72 30.72 0 0 1 512 512z m-128 136.96v64a554.88 554.88 0 0 0-138.88 39.68q-53.12 25.6-53.12 47.36t92.8 64A727.68 727.68 0 0 0 512 896a727.68 727.68 0 0 0 227.2-33.28Q832 832 832 800t-53.12-46.72a554.88 554.88 0 0 0-138.88-39.04v-64a522.24 522.24 0 0 1 184.32 57.6A119.04 119.04 0 0 1 896 800q-3.84 67.84-112.64 113.28A736.64 736.64 0 0 1 512 960a736 736 0 0 1-271.36-46.72Q131.84 867.84 128 800A119.04 119.04 0 0 1 200.32 704 522.24 522.24 0 0 1 384 648.96z" p-id="1168" fill="#ffffff"></path></svg>